{
  "scene": 0,
  "scenes": [
    {
      "nodes": [
        0,
        1
      ]
    }
  ],
  "nodes": [
    {
      "skin": 0,
      "mesh": 0,
      "name": "SimpleSkin_LOD0",
      "extensions": {
        "MSFT_lod": {
          "ids": [
            3,
            4
          ]
        }
      },
      "extras": {
        "MSFT_screencoverage": [
          0.5,
          0.2,
          0.01
        ]
      }
    },
    {
      "children": [
        2
      ]
    },
    {
      "translation": [
        0,
        1,
        0
      ],
      "rotation": [
        0,
        0,
        0,
        1
      ]
    },
    {
      "name": "SimpleSkin_LOD1",
      "skin": 0,
      "mesh": 1
    },
    {
      "name": "SimpleSkin_LOD2",
      "skin": 0,
      "mesh": 2
    }
  ],
  "meshes": [
    {
      "primitives": [
        {
          "attributes": {
            "POSITION": 1,
            "JOINTS_0": 2,
            "WEIGHTS_0": 3
          },
          "indices": 0
        }
      ],
      "name": "SimpleSkin_High"
    },
    {
      "name": "SimpleSkin_Medium",
      "primitives": [
        {
          "attributes": {
            "POSITION": 1,
            "JOINTS_0": 2,
            "WEIGHTS_0": 3
          },
          "indices": 7
        }
      ]
    },
    {
      "name": "SimpleSkin_Low",
      "primitives": [
        {
          "attributes": {
            "POSITION": 1,
            "JOINTS_0": 2,
            "WEIGHTS_0": 3
          },
          "indices": 8
        }
      ]
    }
  ],
  "skins": [
    {
      "inverseBindMatrices": 4,
      "joints": [
        1,
        2
      ]
    }
  ],
  "animations": [
    {
      "channels": [
        {
          "sampler": 0,
          "target": {
            "node": 2,
            "path": "rotation"
          }
        }
      ],
      "samplers": [
        {
          "input": 5,
          "interpolation": "LINEAR",
          "output": 6
        }
      ],
      "name": "Joint Bend"
    }
  ],
  "buffers": [
    {
      "byteLength": 856,
      "uri": "data:application/gltf-buffer;base64,"
    }
  ],
  "bufferViews": [
    {
      "buffer": 0,
      "byteLength": 48,
      "target": 34963
    },
    {
      "buffer": 0,
      "byteOffset": 48,
      "byteLength": 120,
      "target": 34962
    },
    {
      "buffer": 0,
      "byteLength": 320,
      "byteStride": 16,
      "byteOffset": 168
    },
    {
      "buffer": 0,
      "byteLength": 128,
      "byteOffset": 488
    },
    {
      "buffer": 0,
      "byteLength": 240,
      "byteOffset": 616
    }
  ],
  "accessors": [
    {
      "bufferView": 0,
      "componentType": 5123,
      "count": 24,
      "type": "SCALAR"
    },
    {
      "bufferView": 1,
      "componentType": 5126,
      "count": 10,
      "type": "VEC3",
      "max": [
        0.5,
        2,
        0
      ],
      "min": [
        -0.5,
        0,
        0
      ]
    },
    {
      "bufferView": 2,
      "componentType": 5123,
      "count": 10,
      "type": "VEC4"
    },
    {
      "bufferView": 2,
      "byteOffset": 160,
      "componentType": 5126,
      "count": 10,
      "type": "VEC4"
    },
    {
      "bufferView": 3,
      "componentType": 5126,
      "count": 2,
      "type": "MAT4"
    },
    {
      "bufferView": 4,
      "componentType": 5126,
      "count": 12,
      "type": "SCALAR",
      "max": [
        5.5
      ],
      "min": [
        0
      ]
    },
    {
      "bufferView": 4,
      "byteOffset": 48,
      "componentType": 5126,
      "count": 12,
      "type": "VEC4",
      "max": [
        0,
        0,
        0.707,
        1
      ],
      "min": [
        0,
        0,
        -0.707,
        0.707
      ]
    },
    {
      "bufferView": 0,
      "componentType": 5123,
      "count": 12,
      "type": "SCALAR"
    },
    {
      "bufferView": 0,
      "componentType": 5123,
      "count": 6,
      "type": "SCALAR"
    }
  ],
  "asset": {
    "version": "2.0",
    "copyright": "Derived from Simple Skin by Marco Hutter (2017), dedicated to the public domain under CC0-1.0.",
    "extras": {
      "license": "CC0-1.0",
      "author": "Marco Hutter",
      "source": "https://github.com/KhronosGroup/glTF-Sample-Assets/tree/723ffc6706725b618b8c14ceb82e3e6904b08a76/Models/SimpleSkin",
      "modifications": "Combined embedded buffers and added three MSFT_lod skinned mesh levels."
    }
  },
  "extensionsUsed": [
    "MSFT_lod"
  ]
}
