#usda 1.0
(
    customLayerData = {
        string creator = "USD for Autodesk 3ds Max: v0.2.0.41 Beta"
    }
    defaultPrim = "wheelNormal_8angles"
    metersPerUnit = 0.0254
    upAxis = "Z"
)

def Mesh "wheelNormal_8angles"
{
    float3[] extent = [(-1.155058e-12, -1.4, -1.4), (1, 1.4, 1.4)]
    int[] faceVertexCounts = [3, 3, 3, 3, 3, 3, 3, 3, 3, 3, 3, 3, 3, 3, 3, 3, 3, 3, 3, 3, 3, 3, 3, 3, 3, 3, 3, 3, 3, 3, 3, 3, 3, 3, 3, 3, 3, 3, 3, 3, 3, 3, 3, 3, 3, 3, 3, 3, 3, 3, 3, 3, 3, 3, 3, 3, 3, 3, 3, 3, 3, 3, 3, 3, 3, 3, 3, 3, 3, 3, 3, 3, 3, 3, 3, 3, 3, 3, 3, 3, 3, 3, 3, 3, 3, 3, 3, 3, 3, 3, 3, 3, 3, 3, 3, 3, 3, 3, 3, 3, 3, 3, 3, 3, 3, 3, 3, 3, 3, 3, 3, 3, 3, 3, 3, 3, 3, 3, 3, 3, 3, 3, 3, 3, 3, 3, 3, 3, 3, 3, 3, 3, 3, 3, 3, 3, 3, 3, 3, 3, 3, 3, 3, 3, 3, 3, 3, 3, 3, 3, 3, 3, 3, 3, 3, 3, 3, 3, 3, 3, 3, 3, 3, 3, 3, 3, 3, 3, 3, 3, 3, 3, 3, 3, 3, 3, 3, 3, 3, 3, 3, 3, 3, 3, 3, 3, 3, 3, 3, 3, 3, 3, 3, 3, 3, 3, 3, 3, 3, 3, 3, 3, 3, 3, 3, 3, 3, 3, 3, 3, 3, 3, 3, 3, 3, 3, 3, 3, 3, 3, 3, 3, 3, 3, 3, 3, 3, 3, 3, 3, 3, 3, 3, 3, 3, 3]
    int[] faceVertexIndices = [0, 24, 42, 77, 42, 24, 1, 53, 73, 12, 73, 53, 2, 16, 3, 57, 3, 16, 77, 81, 4, 69, 4, 81, 74, 75, 5, 71, 5, 75, 6, 19, 7, 68, 7, 19, 58, 59, 8, 9, 8, 59, 10, 70, 17, 18, 17, 70, 11, 15, 54, 79, 54, 15, 53, 61, 12, 13, 12, 61, 66, 14, 46, 47, 46, 14, 15, 56, 79, 16, 79, 56, 17, 18, 6, 19, 6, 18, 65, 67, 57, 50, 57, 67, 55, 1, 72, 73, 72, 1, 76, 2, 20, 3, 20, 2, 62, 20, 3, 41, 62, 3, 21, 62, 41, 22, 21, 41, 85, 21, 22, 86, 85, 22, 84, 86, 22, 80, 84, 22, 115, 84, 80, 23, 115, 80, 91, 23, 80, 24, 91, 80, 25, 91, 24, 0, 25, 24, 26, 25, 0, 27, 26, 0, 28, 27, 0, 95, 27, 28, 29, 95, 28, 30, 29, 28, 31, 30, 28, 97, 30, 31, 31, 63, 97, 97, 63, 92, 63, 32, 92, 92, 32, 89, 89, 32, 33, 33, 32, 100, 32, 34, 100, 100, 34, 35, 34, 36, 35, 35, 36, 98, 98, 36, 37, 36, 48, 37, 37, 48, 38, 38, 48, 101, 101, 48, 39, 48, 44, 39, 39, 44, 83, 83, 44, 85, 21, 85, 44, 78, 63, 31, 60, 63, 78, 52, 60, 78, 40, 60, 52, 51, 40, 52, 58, 8, 10, 70, 10, 8, 59, 55, 9, 72, 9, 55, 55, 40, 1, 51, 1, 40, 22, 41, 82, 50, 82, 41, 61, 74, 13, 5, 13, 74, 28, 0, 75, 42, 75, 0, 45, 43, 46, 66, 46, 43, 81, 82, 69, 49, 69, 82, 48, 7, 44, 45, 44, 7, 46, 47, 21, 62, 21, 47, 7, 68, 45, 43, 45, 68, 36, 6, 48, 7, 48, 6, 82, 50, 49, 67, 49, 50, 32, 10, 34, 17, 34, 10, 75, 42, 71, 64, 71, 42, 51, 52, 1, 53, 1, 52, 14, 11, 47, 54, 47, 11, 59, 60, 55, 40, 55, 60, 56, 65, 16, 57, 16, 65, 58, 63, 59, 60, 59, 63, 78, 31, 61, 74, 61, 31, 47, 54, 62, 20, 62, 54, 63, 58, 32, 10, 32, 58, 44, 45, 21, 46, 21, 45, 42, 77, 64, 4, 64, 77, 34, 17, 36, 6, 36, 17, 15, 11, 56, 14, 56, 11, 65, 56, 14, 66, 65, 14, 67, 65, 66, 43, 67, 66, 49, 67, 43, 68, 49, 43, 69, 49, 68, 19, 69, 68, 4, 69, 19, 18, 4, 19, 64, 4, 18, 70, 64, 18, 71, 64, 70, 8, 71, 70, 5, 71, 8, 9, 5, 8, 13, 5, 9, 72, 13, 9, 12, 13, 72, 73, 12, 72, 31, 28, 74, 75, 74, 28, 54, 79, 20, 76, 20, 79, 24, 80, 77, 81, 77, 80, 52, 78, 53, 61, 53, 78, 76, 79, 2, 16, 2, 79, 80, 22, 81, 82, 81, 22, 3, 57, 41, 50, 41, 57, 83, 104, 39, 118, 39, 104, 86, 84, 87, 105, 87, 84, 85, 103, 83, 104, 83, 103, 85, 86, 103, 87, 103, 86, 112, 88, 33, 89, 33, 88, 23, 91, 90, 107, 90, 91, 114, 93, 92, 97, 92, 93, 88, 114, 89, 92, 89, 114, 117, 27, 94, 95, 94, 27, 94, 95, 113, 29, 113, 95, 38, 96, 37, 108, 37, 96, 102, 30, 93, 97, 93, 30, 98, 110, 35, 99, 35, 110, 37, 108, 98, 110, 98, 108, 99, 116, 35, 100, 35, 116, 101, 106, 38, 96, 38, 106, 113, 29, 102, 30, 102, 29, 91, 25, 107, 109, 107, 25, 25, 26, 109, 111, 109, 26, 103, 87, 104, 105, 104, 87, 118, 104, 105, 119, 118, 105, 106, 118, 119, 90, 106, 119, 96, 106, 90, 107, 96, 90, 108, 96, 107, 109, 108, 107, 110, 108, 109, 111, 110, 109, 99, 110, 111, 117, 99, 111, 116, 99, 117, 112, 116, 117, 94, 112, 117, 113, 112, 94, 88, 112, 113, 102, 88, 113, 114, 88, 102, 93, 114, 102, 84, 115, 105, 119, 105, 115, 116, 112, 100, 33, 100, 112, 111, 26, 117, 27, 117, 26, 39, 118, 101, 106, 101, 118, 115, 23, 119, 90, 119, 23]
    point3f[] points = [(1, 1.203544, 0.3224885), (0.8, -4.511947e-16, 1.4), (1, 0.3224885, -1.203544), (1, 0.623, -1.079068), (0, 1.4, 0), (8.1575995e-13, 0.9899496, 0.9899496), (0.8, -1.4, -6.576162e-13), (0.8, -1.352296, -0.3623466), (8.1575995e-13, -0.9899496, 0.9899496), (9.962377e-13, -0.7, 1.212435), (0.8, -1.212435, 0.7), (-1.1117442e-12, -0.3623466, -1.3522961), (1.1117442e-12, 0.3623466, 1.3522961), (9.962377e-13, 0.7, 1.212435), (-9.962377e-13, -0.7, -1.212435), (-1.155058e-12, 0, -1.4), (0.8, 0.3623466, -1.352296), (0.8, -1.352296, 0.3623466), (2.959837e-13, -1.3522961, 0.3623466), (0, -1.4, 0), (1, -0.3224885, -1.203544), (1, -0.8810551, -0.8810551), (1, 1.079068, -0.623), (1, 0.6145077, -0.35478622), (1, 1.246, -8.223022e-13), (1, 0.70957243, -8.223022e-13), (1, 0.6853943, 0.1836509), (1, 0.6145077, 0.35478622), (1, 1.079068, 0.623), (1, 0.35478622, 0.6145077), (1, 0.1836509, 0.6853943), (1, 0.8810551, 0.8810551), (1, -1.079068, 0.623), (1, -0.5017435, 0.5017435), (1, -1.203544, 0.3224885), (1, -0.6853943, 0.1836509), (1, -1.246, -8.223022e-13), (1, -0.6853943, -0.1836509), (1, -0.6145077, -0.35478622), (1, -0.35478622, -0.6145077), (1, -0.3224885, 1.203544), (1, 0.8810551, -0.8810551), (0.8, 1.352296, 0.3623466), (-5.775291e-13, -1.212435, -0.7), (1, -1.079068, -0.623), (0.8, -1.212435, -0.7), (0.8, -0.9899495, -0.9899495), (0.8, -0.7, -1.212435), (1, -1.203544, -0.3224885), (-5.775291e-13, 1.212435, -0.7), (0.8, 0.9899495, -0.9899495), (1, -4.511947e-16, 1.246), (1, 0.3224885, 1.203544), (0.8, 0.3623466, 1.352296), (0.8, -0.3623466, -1.352296), (0.8, -0.3623466, 1.352296), (-1.1117442e-12, 0.3623466, -1.3522961), (0.8, 0.7, -1.212435), (0.8, -0.9899495, 0.9899495), (0.8, -0.7, 1.212435), (1, -0.623, 1.079068), (0.8, 0.7, 1.212435), (1, -0.623, -1.079068), (1, -0.8810551, 0.8810551), (2.959837e-13, 1.3522961, 0.3623466), (-9.962377e-13, 0.7, -1.212435), (-8.1575995e-13, -0.9899496, -0.9899496), (-8.1575995e-13, 0.9899496, -0.9899496), (-2.959837e-13, -1.3522961, -0.3623466), (-2.959837e-13, 1.3522961, -0.3623466), (5.775291e-13, -1.212435, 0.7), (5.775291e-13, 1.212435, 0.7), (1.1117442e-12, -0.3623466, 1.3522961), (1.155058e-12, -4.511947e-16, 1.4), (0.8, 0.9899495, 0.9899495), (0.8, 1.212435, 0.7), (1, -2.2559733e-16, -1.246), (0.8, 1.4, -6.576162e-13), (1, 0.623, 1.079068), (0.8, 0, -1.4), (1, 1.203544, -0.3224885), (0.8, 1.352296, -0.3623466), (0.8, 1.212435, -0.7), (1, -0.1836509, -0.6853943), (1, 0.35478622, -0.6145077), (1, -1.127987e-15, -0.70957243), (1, 0.1836509, -0.6853943), (0.8000001, 0.1298608, -0.484647), (0.8000001, -0.25087172, 0.4345226), (1, -0.35478622, 0.6145077), (0.8000001, 0.4345226, -0.25087172), (1, 0.6853943, -0.1836509), (1, -0.1836509, 0.6853943), (0.8000001, 0, 0.5017435), (0.8000001, 0.35478622, 0.35478622), (1, 0.5017435, 0.5017435), (0.8000001, -0.4345226, -0.25087172), (1, 0, 0.70957243), (1, -0.70957243, -8.223022e-13), (0.8000001, -0.484647, 0.1298608), (1, -0.6145077, 0.35478622), (1, -0.5017435, -0.5017435), (0.8000001, 0.1298608, 0.484647), (0.8000001, -9.023893e-16, -0.5017435), (0.8000001, -0.1298608, -0.484647), (0.8000001, 0.25087172, -0.4345226), (0.8000001, -0.35478622, -0.35478622), (0.8000001, 0.484647, -0.1298608), (0.8000001, -0.484647, -0.1298608), (0.8000001, 0.5017435, -6.576162e-13), (0.8000001, -0.5017435, -6.576162e-13), (0.8000001, 0.484647, 0.1298608), (0.8000001, -0.35478622, 0.35478622), (0.8000001, 0.25087172, 0.4345226), (0.8000001, -0.1298608, 0.484647), (1, 0.5017435, -0.5017435), (0.8000001, -0.4345226, 0.25087172), (0.8000001, 0.4345226, 0.25087172), (0.8000001, -0.25087172, -0.4345226), (0.8000001, 0.35478622, -0.35478622)]
    color3f[] primvars:displayColor = [(0.8, 0.8, 0.8)]
    texCoord2f[] primvars:map1 = [(-0.5879688, -0.3098513), (-0.8753481, 0.6414704), (0.6635104, -0.03832853), (0.5308083, 0.9465522), (3.149606, -0.7194357), (3.81934e-14, -0.7194357), (3.149606, 0.7194357), (2.131313e-14, 0.7194357), (-0.01668541, -0.6644071), (-0.3288477, 0.5775589), (0.9633477, -0.4996798), (0.6126035, 0.8957877), (-3.149606, 0.7194357), (-1.009742e-28, 0.7194357), (-3.149606, -0.7194357), (-8.238652e-15, -0.7194357), (3.149606, -0.7194357), (3.310428e-15, -0.7194357), (3.149606, 0.7194357), (5.095848e-15, 0.7194357), (-3.149606, -0.7194357), (-3.149606, 0.7194357), (1.009742e-28, -0.7194357), (-8.238652e-15, 0.7194357), (3.149606, -0.7194357), (3.260942e-15, -0.7194357), (3.149606, 0.7194357), (-7.26602e-15, 0.7194357), (3.149606, 0.7194357), (3.149606, -0.7194357), (1.913809e-14, 0.7194357), (-1.776058e-15, -0.7194357), (2.796858e-16, -0.7194357), (-3.149606, -0.7194357), (1.641797e-14, 0.7194357), (-3.149606, 0.7194357), (3.149606, -0.7194357), (1.832025e-14, -0.7194357), (3.149606, 0.7194357), (1.436142e-14, 0.7194357), (9.89105e-15, -0.7194357), (-3.149606, -0.7194357), (8.541707e-16, 0.7194357), (-3.149606, 0.7194357), (1.641797e-14, -0.7194357), (-3.149606, -0.7194357), (2.796858e-16, 0.7194357), (-3.149606, 0.7194357), (3.149606, 0.7194357), (3.149606, -0.7194357), (-9.854595e-16, 0.7194357), (0, -0.7194357), (8.541707e-16, -0.7194357), (-3.149606, -0.7194357), (9.89105e-15, 0.7194357), (-3.149606, 0.7194357), (3.149606, -0.7194357), (-2.699556e-15, -0.7194357), (3.149606, 0.7194357), (1.333363e-14, 0.7194357), (4.905512, -8.881784e-16), (4.73836, -1.26964), (4.73836, 1.26964), (4.248298, 2.452756), (4.248298, -2.452756), (3.468721, 3.468721), (3.468721, -3.468721), (2.452756, 4.248298), (2.793592, -4.440892e-15), (2.698403, 0.7230349), (2.419322, 1.396796), (1.26964, 4.73836), (1.975368, 1.975368), (1.396796, 2.419322), (0.7230349, 2.698403), (-3.346943e-15, 4.905512), (-3.346943e-15, 2.793592), (-1.26964, 4.73836), (-0.7230349, 2.698403), (-1.396796, 2.419322), (-2.452756, 4.248298), (-1.975368, 1.975368), (-2.419322, 1.396796), (-2.698403, 0.7230349), (-3.468721, 3.468721), (-2.793592, -3.647395e-28), (-3.468721, -3.468721), (-2.698403, -0.7230349), (-2.452756, -4.248298), (-2.419322, -1.396796), (-1.975368, -1.975368), (-1.396796, -2.419322), (-1.26964, -4.73836), (-0.7230349, -2.698403), (-3.346943e-15, -4.905512), (-3.346943e-15, -2.793592), (0.7230349, -2.698403), (1.26964, -4.73836), (1.396796, -2.419322), (1.975368, -1.975368), (2.419322, -1.396796), (2.452756, -4.248298), (2.698403, -0.7230349), (-4.248298, 2.452756), (-4.248298, -2.452756), (-4.73836, 1.26964), (-4.73836, -1.26964), (-4.905512, -1.776357e-15), (3.149606, 0.7194357), (3.149606, -0.7194357), (3.367274e-15, 0.7194357), (5.136044e-15, -0.7194357), (3.149606, -0.7194357), (-7.141054e-15, -0.7194357), (3.149606, 0.7194357), (-5.662649e-15, 0.7194357), (-0.7526132, -0.7818516), (-0.8671951, 0.6524502), (0.2285634, -0.6240785), (0.1265855, 0.6524502), (-0.5368958, 0.3917373), (0.1910394, 1.06828), (0.2574376, -0.6127325), (1.083549, -0.06033745), (3.149606, -0.7194357), (-7.26602e-15, -0.7194357), (3.149606, 0.7194357), (3.260942e-15, 0.7194357), (-0.4284013, -0.5081216), (-1.052265, 0.2654378), (0.6292678, 0.2138626), (0.1361273, 1.076656), (-3.149606, -0.7194357), (-3.149606, 0.7194357), (9.753199e-15, -0.7194357), (9.896917e-15, 0.7194357), (-3.149606, 0.7194357), (-7.412035e-15, 0.7194357), (-3.149606, -0.7194357), (8.250224e-15, -0.7194357), (-0.6292678, -0.2138626), (0.4284013, 0.5081216), (-0.1361273, -1.076656), (1.052265, -0.2654378), (0.4328807, -0.9951547), (-0.4317639, -0.5052674), (1.040232, 0.3092515), (0.1087785, 0.6556542), (-3.149606, -0.7194357), (-3.149606, 0.7194357), (-7.392762e-15, -0.7194357), (8.287455e-15, 0.7194357), (-0.6635104, 0.03832853), (0.5879688, 0.3098513), (-0.5308083, -0.9465522), (0.8753481, -0.6414704), (-3.149606, 0.7194357), (9.793395e-15, 0.7194357), (-3.149606, -0.7194357), (9.953762e-15, -0.7194357), (-0.4284013, 0.5081216), (0.6292678, -0.2138626), (-1.052265, -0.2654378), (0.1361273, -1.076656), (3.149606, -0.7194357), (6.677367e-15, -0.7194357), (3.149606, 0.7194357), (-8.226205e-15, 0.7194357), (0.1265855, -0.6524502), (-0.8671951, -0.6524502), (0.2285634, 0.6240785), (-0.7526132, 0.7818516), (9.257145e-16, -0.7194357), (-3.149606, -0.7194357), (3.334662e-15, 0.7194357), (-3.149606, 0.7194357), (-0.6126035, -0.8957877), (-0.9633477, 0.4996798), (0.3288477, -0.5775589), (0.01668541, 0.6644071), (3.2853e-15, -0.7194357), (-3.149606, -0.7194357), (8.81458e-16, 0.7194357), (-3.149606, 0.7194357), (-0.4328807, -0.9951547), (-1.040232, 0.3092515), (0.4317639, -0.5052674), (-0.1087785, 0.6556542), (-0.1087785, -0.6556542), (-1.040232, -0.3092515), (0.4317639, 0.5052674), (-0.4328807, 0.9951547), (0.6126035, -0.8957877), (-0.3288477, -0.5775589), (0.9633477, 0.4996798), (-0.01668541, 0.6644071), (-0.2574376, 0.6127325), (0.5368958, -0.3917373), (-1.083549, 0.06033745), (-0.1910394, -1.06828), (-0.5368958, -0.3917373), (0.2574376, 0.6127325), (0.1910394, -1.06828), (1.083549, 0.06033745), (3.149606, -0.7194357), (-7.373357e-15, -0.7194357), (3.149606, 0.7194357), (0, 0.7194357), (-0.5879688, 0.3098513), (0.6635104, 0.03832853), (-0.8753481, -0.6414704), (0.5308083, -0.9465522), (-5.511811, 5.602e-42), (-5.324001, 1.426562), (-5.324001, -1.426562), (-4.773368, -2.755906), (-4.773368, 2.755906), (-3.897439, -3.897439), (-3.897439, 3.897439), (-2.755906, -4.773368), (-2.755906, 4.773368), (-1.426562, -5.324001), (-1.426562, 5.324001), (0, -5.511811), (0, 5.511811), (1.426562, -5.324001), (1.426562, 5.324001), (2.755906, -4.773368), (2.755906, 4.773368), (3.897439, -3.897439), (3.897439, 3.897439), (4.773368, -2.755906), (4.773368, 2.755906), (5.324001, -1.426562), (5.324001, 1.426562), (5.511811, -1.776357e-15), (-0.2574376, -0.6127325), (-1.083549, -0.06033745), (0.5368958, 0.3917373), (-0.1910394, 1.06828), (0.7526132, -0.7818516), (-0.2285634, -0.6240785), (0.8671951, 0.6524502), (-0.1265855, 0.6524502), (-0.6635104, -0.03832853), (-0.5308083, 0.9465522), (0.5879688, -0.3098513), (0.8753481, 0.6414704), (0.01668541, -0.6644071), (-0.9633477, -0.4996798), (0.3288477, 0.5775589), (-0.6126035, 0.8957877), (-0.1265855, -0.6524502), (-0.2285634, 0.6240785), (0.8671951, -0.6524502), (0.7526132, 0.7818516), (-0.6292678, 0.2138626), (-0.1361273, 1.076656), (0.4284013, -0.5081216), (1.052265, 0.2654378), (0.1087785, -0.6556542), (-0.4317639, 0.5052674), (1.040232, -0.3092515), (0.4328807, 0.9951547), (4.637402, -0.9979486), (4.429627, -1.696998), (3.523303, -0.7782282), (3.376384, -1.272531), (4.637402, 0.9979486), (3.523303, 0.7782282), (4.429627, 1.696998), (3.376384, 1.272531), (4.742858, -0.08179333), (4.67427, -0.8078347), (3.6073, -0.08179333), (3.558801, -0.5951821), (4.742858, 0.08179333), (3.6073, 0.08179333), (4.67427, 0.8078347), (3.558801, 0.5951821), (-3.028334, -1.961758), (-3.967152, -2.600596), (-3.277058, -1.510032), (-4.3189, -1.961758), (2.680253, 3.913776), (2.022569, 2.988063), (2.048655, 4.278365), (1.575962, 3.245866), (-3.558801, -0.5951821), (-4.67427, -0.8078347), (-3.6073, -0.08179333), (-4.742858, -0.08179333), (-3.376384, -1.272531), (-4.429627, -1.696998), (-3.523303, -0.7782282), (-4.637402, -0.9979486), (-2.45258, 2.646537), (-2.804799, 2.269891), (-3.205361, 3.496721), (-3.703474, 2.964064), (-3.028334, 1.961758), (-3.277058, 1.510032), (-3.967152, 2.600596), (-4.3189, 1.961758), (2.680253, -3.913776), (2.048655, -4.278365), (2.022569, -2.988063), (1.575962, -3.245866), (-3.558801, 0.5951821), (-3.6073, 0.08179333), (-4.67427, 0.8078347), (-4.742858, 0.08179333), (-0.4948363, -4.717683), (-1.212137, -4.586079), (-0.395869, -3.586446), (-0.9030775, -3.493387), (1.212137, -4.586079), (0.4948363, -4.717683), (0.9030775, -3.493387), (0.395869, -3.586446), (-1.575962, -3.245866), (-2.048655, -4.278365), (-2.022569, -2.988063), (-2.680253, -3.913776), (3.703474, -2.964064), (3.205361, -3.496721), (2.804799, -2.269891), (2.45258, -2.646537), (-3.376384, 1.272531), (-3.523303, 0.7782282), (-4.429627, 1.696998), (-4.637402, 0.9979486), (1.212137, 4.586079), (0.9030775, 3.493387), (0.4948363, 4.717683), (0.395869, 3.586446), (-0.4948363, 4.717683), (-0.395869, 3.586446), (-1.212137, 4.586079), (-0.9030775, 3.493387), (1.975368, -3.552714e-15), (1.908059, -0.5112628), (1.908059, 0.5112628), (1.710719, 0.987684), (1.710719, -0.987684), (1.396796, 1.396796), (1.396796, -1.396796), (0.987684, 1.710719), (0.987684, -1.710719), (0.5112628, 1.908059), (0.5112628, -1.908059), (-6.085084e-15, 1.975368), (-6.085084e-15, -1.975368), (-0.5112628, 1.908059), (-0.5112628, -1.908059), (-0.987684, 1.710719), (-0.987684, -1.710719), (-1.396796, -1.396796), (-1.396796, 1.396796), (-1.710719, 0.987684), (-1.710719, -0.987684), (-1.908059, 0.5112628), (-1.908059, -0.5112628), (-1.975368, 3.290902e-28), (4.3189, 1.961758), (3.277058, 1.510032), (3.967152, 2.600596), (3.028334, 1.961758), (-2.45258, -2.646537), (-3.205361, -3.496721), (-2.804799, -2.269891), (-3.703474, -2.964064), (-1.575962, 3.245866), (-2.022569, 2.988063), (-2.048655, 4.278365), (-2.680253, 3.913776), (4.3189, -1.961758), (3.967152, -2.600596), (3.277058, -1.510032), (3.028334, -1.961758), (3.703474, 2.964064), (2.804799, 2.269891), (3.205361, 3.496721), (2.45258, 2.646537)] (
        interpolation = "faceVarying"
    )
    int[] primvars:map1:indices = [0, 2, 1, 3, 1, 2, 4, 6, 5, 7, 5, 6, 8, 10, 9, 11, 9, 10, 12, 14, 13, 15, 13, 14, 16, 18, 17, 19, 17, 18, 20, 22, 21, 23, 21, 22, 24, 26, 25, 27, 25, 26, 28, 30, 29, 31, 29, 30, 32, 34, 33, 35, 33, 34, 36, 38, 37, 39, 37, 38, 40, 42, 41, 43, 41, 42, 44, 46, 45, 47, 45, 46, 48, 50, 49, 51, 49, 50, 52, 54, 53, 55, 53, 54, 56, 58, 57, 59, 57, 58, 60, 62, 61, 63, 61, 62, 64, 61, 63, 65, 64, 63, 66, 64, 65, 67, 66, 65, 68, 66, 67, 69, 68, 67, 70, 69, 67, 71, 70, 67, 72, 70, 71, 73, 72, 71, 74, 73, 71, 75, 74, 71, 76, 74, 75, 77, 76, 75, 78, 76, 77, 79, 78, 77, 80, 79, 77, 81, 79, 80, 82, 81, 80, 83, 82, 80, 84, 83, 80, 85, 83, 84, 84, 86, 85, 85, 86, 87, 86, 88, 87, 87, 88, 89, 89, 88, 90, 90, 88, 91, 88, 92, 91, 91, 92, 93, 92, 94, 93, 93, 94, 95, 95, 94, 96, 94, 97, 96, 96, 97, 98, 98, 97, 99, 99, 97, 100, 97, 101, 100, 100, 101, 102, 102, 101, 68, 66, 68, 101, 103, 86, 84, 104, 86, 103, 105, 104, 103, 106, 104, 105, 107, 106, 105, 108, 110, 109, 111, 109, 110, 112, 114, 113, 115, 113, 114, 116, 118, 117, 119, 117, 118, 120, 122, 121, 123, 121, 122, 124, 126, 125, 127, 125, 126, 128, 130, 129, 131, 129, 130, 132, 134, 133, 135, 133, 134, 136, 138, 137, 139, 137, 138, 140, 142, 141, 143, 141, 142, 144, 146, 145, 147, 145, 146, 148, 150, 149, 151, 149, 150, 152, 154, 153, 155, 153, 154, 156, 158, 157, 159, 157, 158, 160, 162, 161, 163, 161, 162, 164, 166, 165, 167, 165, 166, 168, 170, 169, 171, 169, 170, 172, 174, 173, 175, 173, 174, 176, 178, 177, 179, 177, 178, 180, 182, 181, 183, 181, 182, 184, 186, 185, 187, 185, 186, 188, 190, 189, 191, 189, 190, 192, 194, 193, 195, 193, 194, 196, 198, 197, 199, 197, 198, 200, 202, 201, 203, 201, 202, 204, 206, 205, 207, 205, 206, 208, 210, 209, 211, 209, 210, 212, 214, 213, 215, 213, 214, 216, 213, 215, 217, 216, 215, 218, 216, 217, 219, 218, 217, 220, 218, 219, 221, 220, 219, 222, 220, 221, 223, 222, 221, 224, 222, 223, 225, 224, 223, 226, 224, 225, 227, 226, 225, 228, 226, 227, 229, 228, 227, 230, 228, 229, 231, 230, 229, 232, 230, 231, 233, 232, 231, 234, 232, 233, 235, 234, 233, 236, 238, 237, 239, 237, 238, 240, 242, 241, 243, 241, 242, 244, 246, 245, 247, 245, 246, 248, 250, 249, 251, 249, 250, 252, 254, 253, 255, 253, 254, 256, 258, 257, 259, 257, 258, 260, 262, 261, 263, 261, 262, 264, 266, 265, 267, 265, 266, 268, 270, 269, 271, 269, 270, 272, 274, 273, 275, 273, 274, 276, 278, 277, 279, 277, 278, 280, 282, 281, 283, 281, 282, 284, 286, 285, 287, 285, 286, 288, 290, 289, 291, 289, 290, 292, 294, 293, 295, 293, 294, 296, 298, 297, 299, 297, 298, 300, 302, 301, 303, 301, 302, 304, 306, 305, 307, 305, 306, 308, 310, 309, 311, 309, 310, 312, 314, 313, 315, 313, 314, 316, 318, 317, 319, 317, 318, 320, 322, 321, 323, 321, 322, 324, 326, 325, 327, 325, 326, 328, 330, 329, 331, 329, 330, 332, 334, 333, 335, 333, 334, 336, 338, 337, 339, 337, 338, 340, 342, 341, 343, 341, 342, 344, 341, 343, 345, 344, 343, 346, 344, 345, 347, 346, 345, 348, 346, 347, 349, 348, 347, 350, 348, 349, 351, 350, 349, 352, 350, 351, 353, 352, 351, 354, 352, 353, 355, 354, 353, 356, 354, 355, 357, 356, 355, 358, 357, 355, 359, 357, 358, 360, 357, 359, 361, 360, 359, 362, 360, 361, 363, 362, 361, 364, 366, 365, 367, 365, 366, 368, 370, 369, 371, 369, 370, 372, 374, 373, 375, 373, 374, 376, 378, 377, 379, 377, 378, 380, 382, 381, 383, 381, 382]
    float3[] primvars:normals = [(0.6100936, 0.7653314, 0.2050699), (0.6100936, 0.7923294, 0), (0.6100936, 0.7653314, 0.2050699), (0.6100936, 0.7923294, 0), (0.6100936, 0.7653314, 0.2050699), (0.6100936, 0.7923294, 0), (0, 0, 1), (0, 0.258819, 0.9659258), (0, 0, 1), (0, 0.258819, 0.9659258), (0, 0, 1), (0, 0.258819, 0.9659258), (0.6100936, 0.2050699, -0.7653314), (0.6100936, 0.2050699, -0.7653314), (0.6100936, 0.3961647, -0.6861774), (0.6100936, 0.3961647, -0.6861774), (0.6100936, 0.3961647, -0.6861774), (0.6100936, 0.2050699, -0.7653314), (0, 1, 0), (0, 0.9659258, -0.258819), (0, 1, 0), (0, 0.9659258, -0.258819), (0, 1, 0), (0, 0.9659258, -0.258819), (0, 0.7071068, 0.7071068), (0, 0.8660254, 0.5), (0, 0.7071068, 0.7071068), (0, 0.8660254, 0.5), (0, 0.7071068, 0.7071068), (0, 0.8660254, 0.5), (0, -1, 0), (0, -1, 0), (0, -0.9659258, -0.258819), (0, -0.9659258, -0.258819), (0, -0.9659258, -0.258819), (0, -1, 0), (0, -0.7071068, 0.7071068), (0, -0.5, 0.8660254), (0, -0.7071068, 0.7071068), (0, -0.5, 0.8660254), (0, -0.7071068, 0.7071068), (0, -0.5, 0.8660254), (0, -0.8660254, 0.5), (0, -0.8660254, 0.5), (0, -0.9659258, 0.258819), (0, -0.9659258, 0.258819), (0, -0.9659258, 0.258819), (0, -0.8660254, 0.5), (0, -0.258819, -0.9659258), (0, 0, -1), (0, -0.258819, -0.9659258), (0, 0, -1), (0, -0.258819, -0.9659258), (0, 0, -1), (0, 0.258819, 0.9659258), (0, 0.5, 0.8660254), (0, 0.258819, 0.9659258), (0, 0.5, 0.8660254), (0, 0.258819, 0.9659258), (0, 0.5, 0.8660254), (0, -0.7071068, -0.7071068), (0, -0.5, -0.8660254), (0, -0.7071068, -0.7071068), (0, -0.5, -0.8660254), (0, -0.7071068, -0.7071068), (0, -0.5, -0.8660254), (0, 0, -1), (0, 0.258819, -0.9659258), (0, 0, -1), (0, 0.258819, -0.9659258), (0, 0, -1), (0, 0.258819, -0.9659258), (0, -0.9659258, 0.258819), (0, -0.9659258, 0.258819), (0, -1, 0), (0, -1, 0), (0, -1, 0), (0, -0.9659258, 0.258819), (0, 0.5, -0.8660254), (0, 0.7071068, -0.7071068), (0, 0.5, -0.8660254), (0, 0.7071068, -0.7071068), (0, 0.5, -0.8660254), (0, 0.7071068, -0.7071068), (0, -0.258819, 0.9659258), (0, 0, 1), (0, -0.258819, 0.9659258), (0, 0, 1), (0, -0.258819, 0.9659258), (0, 0, 1), (1, 0, 0), (1, 0, 0), (1, 0, 0), (1, 0, 0), (1, 0, 0), (1, 0, 0), (1, 0, 0), (1, 0, 0), (1, 0, 0), (1, 0, 0), (1, 0, 0), (1, 0, 0), (1, 0, 0), (1, 0, 0), (1, 0, 0), (1, 0, 0), (1, 0, 0), (1, 0, 0), (1, 0, 0), (1, 0, 0), (1, 0, 0), (1, 0, 0), (1, 0, 0), (1, 0, 0), (1, 0, 0), (1, 0, 0), (1, 0, 0), (1, 0, 0), (1, 0, 0), (1, 0, 0), (1, 0, 0), (1, 0, 0), (1, 0, 0), (1, 0, 0), (1, 0, 0), (1, 0, 0), (1, 0, 0), (1, 0, 0), (1, 0, 0), (1, 0, 0), (1, 0, 0), (1, 0, 0), (1, 0, 0), (1, 0, 0), (1, 0, 0), (1, 0, 0), (1, 0, 0), (1, 0, 0), (1, 0, 0), (1, 0, 0), (1, 0, 0), (1, 0, 0), (1, 0, 0), (1, 0, 0), (1, 0, 0), (1, 0, 0), (1, 0, 0), (1, 0, 0), (1, 0, 0), (1, 0, 0), (1, 0, 0), (1, 0, 0), (1, 0, 0), (1, 0, 0), (1, 0, 0), (1, 0, 0), (1, 0, 0), (1, 0, 0), (1, 0, 0), (1, 0, 0), (1, 0, 0), (1, 0, 0), (1, 0, 0), (1, 0, 0), (1, 0, 0), (1, 0, 0), (1, 0, 0), (1, 0, 0), (1, 0, 0), (1, 0, 0), (1, 0, 0), (1, 0, 0), (1, 0, 0), (1, 0, 0), (1, 0, 0), (1, 0, 0), (1, 0, 0), (1, 0, 0), (1, 0, 0), (1, 0, 0), (1, 0, 0), (1, 0, 0), (1, 0, 0), (1, 0, 0), (1, 0, 0), (1, 0, 0), (1, 0, 0), (1, 0, 0), (1, 0, 0), (1, 0, 0), (1, 0, 0), (1, 0, 0), (1, 0, 0), (1, 0, 0), (1, 0, 0), (1, 0, 0), (1, 0, 0), (1, 0, 0), (1, 0, 0), (1, 0, 0), (1, 0, 0), (1, 0, 0), (1, 0, 0), (1, 0, 0), (1, 0, 0), (1, 0, 0), (1, 0, 0), (1, 0, 0), (1, 0, 0), (1, 0, 0), (1, 0, 0), (1, 0, 0), (1, 0, 0), (1, 0, 0), (1, 0, 0), (1, 0, 0), (1, 0, 0), (1, 0, 0), (1, 0, 0), (1, 0, 0), (1, 0, 0), (1, 0, 0), (1, 0, 0), (1, 0, 0), (1, 0, 0), (1, 0, 0), (1, 0, 0), (1, 0, 0), (1, 0, 0), (1, 0, 0), (1, 0, 0), (1, 0, 0), (1, 0, 0), (1, 0, 0), (0, -0.7071068, 0.7071068), (0, -0.7071068, 0.7071068), (0, -0.8660254, 0.5), (0, -0.8660254, 0.5), (0, -0.8660254, 0.5), (0, -0.7071068, 0.7071068), (0, -0.5, 0.8660254), (0, -0.258819, 0.9659258), (0, -0.5, 0.8660254), (0, -0.258819, 0.9659258), (0, -0.5, 0.8660254), (0, -0.258819, 0.9659258), (0.6100936, -0.2050699, 0.7653314), (0.6100936, -0.2050699, 0.7653314), (0.6100936, 0, 0.7923294), (0.6100936, 0, 0.7923294), (0.6100936, 0, 0.7923294), (0.6100936, -0.2050699, 0.7653314), (0.6100936, 0.6861774, -0.3961647), (0.6100937, 0.5602615, -0.5602615), (0.6100936, 0.6861774, -0.3961647), (0.6100937, 0.5602615, -0.5602615), (0.6100936, 0.6861774, -0.3961647), (0.6100937, 0.5602615, -0.5602615), (0, 0.5, 0.8660254), (0, 0.7071068, 0.7071068), (0, 0.5, 0.8660254), (0, 0.7071068, 0.7071068), (0, 0.5, 0.8660254), (0, 0.7071068, 0.7071068), (0.6100936, 0.6861774, 0.3961647), (0.6100936, 0.7653314, 0.2050699), (0.6100936, 0.6861774, 0.3961647), (0.6100936, 0.7653314, 0.2050699), (0.6100936, 0.6861774, 0.3961647), (0.6100936, 0.7653314, 0.2050699), (0, -0.8660254, -0.5), (0, -0.8660254, -0.5), (0, -0.7071068, -0.7071068), (0, -0.7071068, -0.7071068), (0, -0.7071068, -0.7071068), (0, -0.8660254, -0.5), (0, 0.9659258, -0.258819), (0, 0.8660254, -0.5), (0, 0.9659258, -0.258819), (0, 0.8660254, -0.5), (0, 0.9659258, -0.258819), (0, 0.8660254, -0.5), (0.6100936, -0.7653314, -0.2050699), (0.6100936, -0.7653314, -0.2050699), (0.6100936, -0.6861774, -0.3961647), (0.6100936, -0.6861774, -0.3961647), (0.6100936, -0.6861774, -0.3961647), (0.6100936, -0.7653314, -0.2050699), (0.6100937, -0.5602615, -0.5602615), (0.6100936, -0.3961647, -0.6861774), (0.6100937, -0.5602615, -0.5602615), (0.6100936, -0.3961647, -0.6861774), (0.6100937, -0.5602615, -0.5602615), (0.6100936, -0.3961647, -0.6861774), (0, -0.9659258, -0.258819), (0, -0.9659258, -0.258819), (0, -0.8660254, -0.5), (0, -0.8660254, -0.5), (0, -0.8660254, -0.5), (0, -0.9659258, -0.258819), (0.6100936, -0.7923294, 0), (0.6100936, -0.7923294, 0), (0.6100936, -0.7653314, -0.2050699), (0.6100936, -0.7653314, -0.2050699), (0.6100936, -0.7653314, -0.2050699), (0.6100936, -0.7923294, 0), (0, 0.8660254, -0.5), (0, 0.7071068, -0.7071068), (0, 0.8660254, -0.5), (0, 0.7071068, -0.7071068), (0, 0.8660254, -0.5), (0, 0.7071068, -0.7071068), (0.6100936, -0.6861774, 0.3961647), (0.6100936, -0.6861774, 0.3961647), (0.6100936, -0.7653314, 0.2050699), (0.6100936, -0.7653314, 0.2050699), (0.6100936, -0.7653314, 0.2050699), (0.6100936, -0.6861774, 0.3961647), (0, 0.8660254, 0.5), (0, 0.9659258, 0.258819), (0, 0.8660254, 0.5), (0, 0.9659258, 0.258819), (0, 0.8660254, 0.5), (0, 0.9659258, 0.258819), (0.6100936, 0, 0.7923294), (0.6100936, 0.2050699, 0.7653314), (0.6100936, 0, 0.7923294), (0.6100936, 0.2050699, 0.7653314), (0.6100936, 0, 0.7923294), (0.6100936, 0.2050699, 0.7653314), (0, -0.5, -0.8660254), (0, -0.258819, -0.9659258), (0, -0.5, -0.8660254), (0, -0.258819, -0.9659258), (0, -0.5, -0.8660254), (0, -0.258819, -0.9659258), (0.6100936, -0.3961647, 0.6861774), (0.6100936, -0.3961647, 0.6861774), (0.6100936, -0.2050699, 0.7653314), (0.6100936, -0.2050699, 0.7653314), (0.6100936, -0.2050699, 0.7653314), (0.6100936, -0.3961647, 0.6861774), (0, 0.258819, -0.9659258), (0, 0.5, -0.8660254), (0, 0.258819, -0.9659258), (0, 0.5, -0.8660254), (0, 0.258819, -0.9659258), (0, 0.5, -0.8660254), (0.6100937, -0.5602615, 0.5602615), (0.6100937, -0.5602615, 0.5602615), (0.6100936, -0.3961647, 0.6861774), (0.6100936, -0.3961647, 0.6861774), (0.6100936, -0.3961647, 0.6861774), (0.6100937, -0.5602615, 0.5602615), (0.6100936, 0.3961647, 0.6861774), (0.6100937, 0.5602615, 0.5602615), (0.6100936, 0.3961647, 0.6861774), (0.6100937, 0.5602615, 0.5602615), (0.6100936, 0.3961647, 0.6861774), (0.6100937, 0.5602615, 0.5602615), (0.6100936, -0.3961647, -0.6861774), (0.6100936, -0.2050699, -0.7653314), (0.6100936, -0.3961647, -0.6861774), (0.6100936, -0.2050699, -0.7653314), (0.6100936, -0.3961647, -0.6861774), (0.6100936, -0.2050699, -0.7653314), (0.6100937, -0.5602615, 0.5602615), (0.6100937, -0.5602615, 0.5602615), (0.6100936, -0.6861774, 0.3961647), (0.6100936, -0.6861774, 0.3961647), (0.6100936, -0.6861774, 0.3961647), (0.6100937, -0.5602615, 0.5602615), (0.6100936, -0.6861774, -0.3961647), (0.6100936, -0.6861774, -0.3961647), (0.6100937, -0.5602615, -0.5602615), (0.6100937, -0.5602615, -0.5602615), (0.6100937, -0.5602615, -0.5602615), (0.6100936, -0.6861774, -0.3961647), (0, 0.9659258, 0.258819), (0, 1, 0), (0, 0.9659258, 0.258819), (0, 1, 0), (0, 0.9659258, 0.258819), (0, 1, 0), (0.6100936, -0.7653314, 0.2050699), (0.6100936, -0.7653314, 0.2050699), (0.6100936, -0.7923294, 0), (0.6100936, -0.7923294, 0), (0.6100936, -0.7923294, 0), (0.6100936, -0.7653314, 0.2050699), (-1, 0, 0), (-1, 0, 0), (-1, 0, 0), (-1, 0, 0), (-1, 0, 0), (-1, 0, 0), (-1, 0, 0), (-1, 0, 0), (-1, 0, 0), (-1, 0, 0), (-1, 0, 0), (-1, 0, 0), (-1, 0, 0), (-1, 0, 0), (-1, 0, 0), (-1, 0, 0), (-1, 0, 0), (-1, 0, 0), (-1, 0, 0), (-1, 0, 0), (-1, 0, 0), (-1, 0, 0), (-1, 0, 0), (-1, 0, 0), (-1, 0, 0), (-1, 0, 0), (-1, 0, 0), (-1, 0, 0), (-1, 0, 0), (-1, 0, 0), (-1, 0, 0), (-1, 0, 0), (-1, 0, 0), (-1, 0, 0), (-1, 0, 0), (-1, 0, 0), (-1, 0, 0), (-1, 0, 0), (-1, 0, 0), (-1, 0, 0), (-1, 0, 0), (-1, 0, 0), (-1, 0, 0), (-1, 0, 0), (-1, 0, 0), (-1, 0, 0), (-1, 0, 0), (-1, 0, 0), (-1, 0, 0), (-1, 0, 0), (-1, 0, 0), (-1, 0, 0), (-1, 0, 0), (-1, 0, 0), (-1, 0, 0), (-1, 0, 0), (-1, 0, 0), (-1, 0, 0), (-1, 0, 0), (-1, 0, 0), (-1, 0, 0), (-1, 0, 0), (-1, 0, 0), (-1, 0, 0), (-1, 0, 0), (-1, 0, 0), (0.6100937, 0.5602615, 0.5602615), (0.6100936, 0.6861774, 0.3961647), (0.6100937, 0.5602615, 0.5602615), (0.6100936, 0.6861774, 0.3961647), (0.6100937, 0.5602615, 0.5602615), (0.6100936, 0.6861774, 0.3961647), (0.6100936, -0.2050699, -0.7653314), (0.6100936, 0, -0.7923294), (0.6100936, -0.2050699, -0.7653314), (0.6100936, 0, -0.7923294), (0.6100936, -0.2050699, -0.7653314), (0.6100936, 0, -0.7923294), (0.6100936, 0.7923294, 0), (0.6100936, 0.7653314, -0.2050699), (0.6100936, 0.7923294, 0), (0.6100936, 0.7653314, -0.2050699), (0.6100936, 0.7923294, 0), (0.6100936, 0.7653314, -0.2050699), (0.6100936, 0.2050699, 0.7653314), (0.6100936, 0.3961647, 0.6861774), (0.6100936, 0.2050699, 0.7653314), (0.6100936, 0.3961647, 0.6861774), (0.6100936, 0.2050699, 0.7653314), (0.6100936, 0.3961647, 0.6861774), (0.6100936, 0, -0.7923294), (0.6100936, 0, -0.7923294), (0.6100936, 0.2050699, -0.7653314), (0.6100936, 0.2050699, -0.7653314), (0.6100936, 0.2050699, -0.7653314), (0.6100936, 0, -0.7923294), (0.6100936, 0.7653314, -0.2050699), (0.6100936, 0.6861774, -0.3961647), (0.6100936, 0.7653314, -0.2050699), (0.6100936, 0.6861774, -0.3961647), (0.6100936, 0.7653314, -0.2050699), (0.6100936, 0.6861774, -0.3961647), (0.6100936, 0.3961647, -0.6861774), (0.6100936, 0.3961647, -0.6861774), (0.6100937, 0.5602615, -0.5602615), (0.6100937, 0.5602615, -0.5602615), (0.6100937, 0.5602615, -0.5602615), (0.6100936, 0.3961647, -0.6861774), (0.7205481, 0.1794664, 0.6697778), (0.7205481, 0.1794664, 0.6697778), (0.7205481, 0.3467025, 0.6005063), (0.7205481, 0.3467025, 0.6005063), (0.7205481, 0.3467025, 0.6005063), (0.7205481, 0.1794664, 0.6697778), (0.7205481, -0.1794664, 0.6697778), (0.7205481, -0.3467025, 0.6005063), (0.7205481, -0.1794664, 0.6697778), (0.7205481, -0.3467025, 0.6005063), (0.7205481, -0.1794664, 0.6697778), (0.7205481, -0.3467025, 0.6005063), (0.7205481, 0, 0.693405), (0.7205481, 0, 0.693405), (0.7205481, 0.1794664, 0.6697778), (0.7205481, 0.1794664, 0.6697778), (0.7205481, 0.1794664, 0.6697778), (0.7205481, 0, 0.693405), (0.7205481, 0, 0.693405), (0.7205481, -0.1794664, 0.6697778), (0.7205481, 0, 0.693405), (0.7205481, -0.1794664, 0.6697778), (0.7205481, 0, 0.693405), (0.7205481, -0.1794664, 0.6697778), (0.7205481, 0.4903114, -0.4903114), (0.7205481, 0.3467025, -0.6005063), (0.7205481, 0.4903114, -0.4903114), (0.7205481, 0.3467025, -0.6005063), (0.7205481, 0.4903114, -0.4903114), (0.7205481, 0.3467025, -0.6005063), (0.7205481, -0.6005063, 0.3467025), (0.7205481, -0.6697778, 0.1794664), (0.7205481, -0.6005063, 0.3467025), (0.7205481, -0.6697778, 0.1794664), (0.7205481, -0.6005063, 0.3467025), (0.7205481, -0.6697778, 0.1794664), (0.7205481, 0.1794664, -0.6697778), (0.7205481, 0, -0.693405), (0.7205481, 0.1794664, -0.6697778), (0.7205481, 0, -0.693405), (0.7205481, 0.1794664, -0.6697778), (0.7205481, 0, -0.693405), (0.7205481, 0.3467025, -0.6005063), (0.7205481, 0.1794664, -0.6697778), (0.7205481, 0.3467025, -0.6005063), (0.7205481, 0.1794664, -0.6697778), (0.7205481, 0.3467025, -0.6005063), (0.7205481, 0.1794664, -0.6697778), (0.7205481, -0.6005063, -0.3467025), (0.7205481, -0.6005063, -0.3467025), (0.7205481, -0.4903114, -0.4903114), (0.7205481, -0.4903114, -0.4903114), (0.7205481, -0.4903114, -0.4903114), (0.7205481, -0.6005063, -0.3467025), (0.7205481, -0.4903114, -0.4903114), (0.7205481, -0.4903114, -0.4903114), (0.7205481, -0.3467025, -0.6005063), (0.7205481, -0.3467025, -0.6005063), (0.7205481, -0.3467025, -0.6005063), (0.7205481, -0.4903114, -0.4903114), (0.7205481, 0.6005063, 0.3467025), (0.7205481, 0.6005063, 0.3467025), (0.7205481, 0.6697778, 0.1794664), (0.7205481, 0.6697778, 0.1794664), (0.7205481, 0.6697778, 0.1794664), (0.7205481, 0.6005063, 0.3467025), (0.7205481, -0.1794664, -0.6697778), (0.7205481, -0.1794664, -0.6697778), (0.7205481, 0, -0.693405), (0.7205481, 0, -0.693405), (0.7205481, 0, -0.693405), (0.7205481, -0.1794664, -0.6697778), (0.7205481, 0.693405, 0), (0.7205481, 0.693405, 0), (0.7205481, 0.6697778, -0.1794664), (0.7205481, 0.6697778, -0.1794664), (0.7205481, 0.6697778, -0.1794664), (0.7205481, 0.693405, 0), (0.7205481, 0.6697778, 0.1794664), (0.7205481, 0.6697778, 0.1794664), (0.7205481, 0.693405, 0), (0.7205481, 0.693405, 0), (0.7205481, 0.693405, 0), (0.7205481, 0.6697778, 0.1794664), (0.7205481, 0.6697778, -0.1794664), (0.7205481, 0.6005063, -0.3467025), (0.7205481, 0.6697778, -0.1794664), (0.7205481, 0.6005063, -0.3467025), (0.7205481, 0.6697778, -0.1794664), (0.7205481, 0.6005063, -0.3467025), (0.7205481, 0.4903114, 0.4903114), (0.7205481, 0.4903114, 0.4903114), (0.7205481, 0.6005063, 0.3467025), (0.7205481, 0.6005063, 0.3467025), (0.7205481, 0.6005063, 0.3467025), (0.7205481, 0.4903114, 0.4903114), (0.7205481, -0.3467025, -0.6005063), (0.7205481, -0.3467025, -0.6005063), (0.7205481, -0.1794664, -0.6697778), (0.7205481, -0.1794664, -0.6697778), (0.7205481, -0.1794664, -0.6697778), (0.7205481, -0.3467025, -0.6005063), (0.7205481, -0.6697778, 0.1794664), (0.7205481, -0.693405, 0), (0.7205481, -0.6697778, 0.1794664), (0.7205481, -0.693405, 0), (0.7205481, -0.6697778, 0.1794664), (0.7205481, -0.693405, 0), (0.7205481, -0.693405, 0), (0.7205481, -0.6697778, -0.1794664), (0.7205481, -0.693405, 0), (0.7205481, -0.6697778, -0.1794664), (0.7205481, -0.693405, 0), (0.7205481, -0.6697778, -0.1794664), (1, 0, 0), (1, 0, 0), (1, 0, 0), (1, 0, 0), (1, 0, 0), (1, 0, 0), (1, 0, 0), (1, 0, 0), (1, 0, 0), (1, 0, 0), (1, 0, 0), (1, 0, 0), (1, 0, 0), (1, 0, 0), (1, 0, 0), (1, 0, 0), (1, 0, 0), (1, 0, 0), (1, 0, 0), (1, 0, 0), (1, 0, 0), (1, 0, 0), (1, 0, 0), (1, 0, 0), (1, 0, 0), (1, 0, 0), (1, 0, 0), (1, 0, 0), (1, 0, 0), (1, 0, 0), (1, 0, 0), (1, 0, 0), (1, 0, 0), (1, 0, 0), (1, 0, 0), (1, 0, 0), (1, 0, 0), (1, 0, 0), (1, 0, 0), (1, 0, 0), (1, 0, 0), (1, 0, 0), (1, 0, 0), (1, 0, 0), (1, 0, 0), (1, 0, 0), (1, 0, 0), (1, 0, 0), (1, 0, 0), (1, 0, 0), (1, 0, 0), (1, 0, 0), (1, 0, 0), (1, 0, 0), (1, 0, 0), (1, 0, 0), (1, 0, 0), (1, 0, 0), (1, 0, 0), (1, 0, 0), (1, 0, 0), (1, 0, 0), (1, 0, 0), (1, 0, 0), (1, 0, 0), (1, 0, 0), (0.7205481, -0.3467025, 0.6005063), (0.7205481, -0.4903114, 0.4903114), (0.7205481, -0.3467025, 0.6005063), (0.7205481, -0.4903114, 0.4903114), (0.7205481, -0.3467025, 0.6005063), (0.7205481, -0.4903114, 0.4903114), (0.7205481, 0.6005063, -0.3467025), (0.7205481, 0.4903114, -0.4903114), (0.7205481, 0.6005063, -0.3467025), (0.7205481, 0.4903114, -0.4903114), (0.7205481, 0.6005063, -0.3467025), (0.7205481, 0.4903114, -0.4903114), (0.7205481, -0.6697778, -0.1794664), (0.7205481, -0.6697778, -0.1794664), (0.7205481, -0.6005063, -0.3467025), (0.7205481, -0.6005063, -0.3467025), (0.7205481, -0.6005063, -0.3467025), (0.7205481, -0.6697778, -0.1794664), (0.7205481, 0.3467025, 0.6005063), (0.7205481, 0.3467025, 0.6005063), (0.7205481, 0.4903114, 0.4903114), (0.7205481, 0.4903114, 0.4903114), (0.7205481, 0.4903114, 0.4903114), (0.7205481, 0.3467025, 0.6005063), (0.7205481, -0.4903114, 0.4903114), (0.7205481, -0.6005063, 0.3467025), (0.7205481, -0.4903114, 0.4903114), (0.7205481, -0.6005063, 0.3467025), (0.7205481, -0.4903114, 0.4903114), (0.7205481, -0.6005063, 0.3467025)] (
        interpolation = "faceVarying"
    )
    uniform token subdivisionScheme = "none"
    uniform token subsetFamily:materialBind:familyType = "partition"
    matrix4d xformOp:transform = ( (39.3701, 0, 0, 0), (0, -0.00000172092, 39.3701, 0), (0, -39.3701, -0.00000172092, 0), (0, 0, 0, 1) )
    uniform token[] xformOpOrder = ["xformOp:transform"]

    def GeomSubset "_1_greyMediumMax" (
        prepend apiSchemas = ["MaterialBindingAPI"]
        customData = {
            dictionary "3dsmax" = {
                int matId = 1
            }
        }
    )
    {
        uniform token elementType = "face"
        uniform token familyName = "materialBind"
        int[] indices = [0, 1, 2, 3, 4, 5, 6, 7, 8, 9, 10, 11, 12, 13, 14, 15, 16, 17, 18, 19, 20, 21, 22, 23, 24, 25, 26, 27, 28, 29, 30, 31, 32, 33, 34, 35, 36, 37, 38, 39, 40, 41, 42, 43, 44, 45, 46, 47, 48, 49, 50, 51, 52, 53, 54, 55, 56, 57, 58, 59, 60, 61, 62, 63, 64, 65, 66, 67, 68, 69, 70, 71, 72, 73, 74, 75, 76, 77, 78, 79, 80, 81, 82, 83, 84, 85, 86, 87, 88, 89, 90, 91, 92, 93, 94, 95, 96, 97, 98, 99, 100, 101, 102, 103, 104, 105, 106, 107, 108, 109, 110, 111, 112, 113, 114, 115, 116, 117, 118, 119, 120, 121, 122, 123, 124, 125, 126, 127, 128, 129, 130, 131, 132, 133, 134, 135, 136, 137, 138, 139, 140, 141, 142, 143, 144, 145, 146, 147, 148, 149, 150, 151, 152, 153, 154, 155, 156, 157, 158, 159, 160, 161, 162, 163, 164, 165]
        rel material:binding = </Materials/greyMediumMax>
    }

    def GeomSubset "_2_greyLightMax" (
        prepend apiSchemas = ["MaterialBindingAPI"]
        customData = {
            dictionary "3dsmax" = {
                int matId = 2
            }
        }
    )
    {
        uniform token elementType = "face"
        uniform token familyName = "materialBind"
        int[] indices = [166, 167, 168, 169, 170, 171, 172, 173, 174, 175, 176, 177, 178, 179, 180, 181, 182, 183, 184, 185, 186, 187, 188, 189, 190, 191, 192, 193, 194, 195, 196, 197, 198, 199, 200, 201, 202, 203, 204, 205, 206, 207, 208, 209, 210, 211, 212, 213, 214, 215, 216, 217, 218, 219, 220, 221, 222, 223, 224, 225, 226, 227, 228, 229, 230, 231, 232, 233, 234, 235]
        rel material:binding = </Materials/greyLightMax>
    }
}


